<svg id="visual" viewBox="0 0 900 600" width="900" height="600" xmlns="http://www.w3.org/2000/svg" xmlns:xlink="http://www.w3.org/1999/xlink" version="1.1"><rect x="0" y="0" width="900" height="600" fill="#06182a"></rect><path d="M0 382L129 382L129 336L257 336L257 377L386 377L386 349L514 349L514 334L643 334L643 252L771 252L771 328L900 328L900 258L900 601L900 601L771 601L771 601L643 601L643 601L514 601L514 601L386 601L386 601L257 601L257 601L129 601L129 601L0 601Z" fill="#0066ff"></path><path d="M0 411L129 411L129 453L257 453L257 382L386 382L386 432L514 432L514 444L643 444L643 439L771 439L771 413L900 413L900 370L900 601L900 601L771 601L771 601L643 601L643 601L514 601L514 601L386 601L386 601L257 601L257 601L129 601L129 601L0 601Z" fill="#003e8c"></path><path d="M0 448L129 448L129 520L257 520L257 499L386 499L386 496L514 496L514 459L643 459L643 451L771 451L771 489L900 489L900 514L900 601L900 601L771 601L771 601L643 601L643 601L514 601L514 601L386 601L386 601L257 601L257 601L129 601L129 601L0 601Z" fill="#001122"></path></svg>