<svg id="visual" viewBox="0 0 900 600" width="900" height="600" xmlns="http://www.w3.org/2000/svg" xmlns:xlink="http://www.w3.org/1999/xlink" version="1.1"><rect x="0" y="0" width="900" height="600" fill="#001122"></rect><path d="M0 461L21.5 456.5C43 452 86 443 128.8 434.7C171.7 426.3 214.3 418.7 257.2 414.3C300 410 343 409 385.8 412.2C428.7 415.3 471.3 422.7 514.2 424.2C557 425.7 600 421.3 642.8 424.2C685.7 427 728.3 437 771.2 438.3C814 439.7 857 432.3 878.5 428.7L900 425L900 601L878.5 601C857 601 814 601 771.2 601C728.3 601 685.7 601 642.8 601C600 601 557 601 514.2 601C471.3 601 428.7 601 385.8 601C343 601 300 601 257.2 601C214.3 601 171.7 601 128.8 601C86 601 43 601 21.5 601L0 601Z" fill="#0066ff"></path><path d="M0 473L21.5 469.2C43 465.3 86 457.7 128.8 456.5C171.7 455.3 214.3 460.7 257.2 462C300 463.3 343 460.7 385.8 465.8C428.7 471 471.3 484 514.2 483.5C557 483 600 469 642.8 461.2C685.7 453.3 728.3 451.7 771.2 449.3C814 447 857 444 878.5 442.5L900 441L900 601L878.5 601C857 601 814 601 771.2 601C728.3 601 685.7 601 642.8 601C600 601 557 601 514.2 601C471.3 601 428.7 601 385.8 601C343 601 300 601 257.2 601C214.3 601 171.7 601 128.8 601C86 601 43 601 21.5 601L0 601Z" fill="#007aff"></path><path d="M0 518L21.5 514.7C43 511.3 86 504.7 128.8 497.3C171.7 490 214.3 482 257.2 483.3C300 484.7 343 495.3 385.8 502.2C428.7 509 471.3 512 514.2 508.8C557 505.7 600 496.3 642.8 489.7C685.7 483 728.3 479 771.2 481.3C814 483.7 857 492.3 878.5 496.7L900 501L900 601L878.5 601C857 601 814 601 771.2 601C728.3 601 685.7 601 642.8 601C600 601 557 601 514.2 601C471.3 601 428.7 601 385.8 601C343 601 300 601 257.2 601C214.3 601 171.7 601 128.8 601C86 601 43 601 21.5 601L0 601Z" fill="#008cff"></path><path d="M0 536L21.5 537.7C43 539.3 86 542.7 128.8 539.2C171.7 535.7 214.3 525.3 257.2 519.7C300 514 343 513 385.8 512.8C428.7 512.7 471.3 513.3 514.2 520.7C557 528 600 542 642.8 547.5C685.7 553 728.3 550 771.2 547.2C814 544.3 857 541.7 878.5 540.3L900 539L900 601L878.5 601C857 601 814 601 771.2 601C728.3 601 685.7 601 642.8 601C600 601 557 601 514.2 601C471.3 601 428.7 601 385.8 601C343 601 300 601 257.2 601C214.3 601 171.7 601 128.8 601C86 601 43 601 21.5 601L0 601Z" fill="#2b9dfc"></path><path d="M0 540L21.5 542.7C43 545.3 86 550.7 128.8 553.3C171.7 556 214.3 556 257.2 557.2C300 558.3 343 560.7 385.8 564C428.7 567.3 471.3 571.7 514.2 572.8C557 574 600 572 642.8 571.5C685.7 571 728.3 572 771.2 572.8C814 573.7 857 574.3 878.5 574.7L900 575L900 601L878.5 601C857 601 814 601 771.2 601C728.3 601 685.7 601 642.8 601C600 601 557 601 514.2 601C471.3 601 428.7 601 385.8 601C343 601 300 601 257.2 601C214.3 601 171.7 601 128.8 601C86 601 43 601 21.5 601L0 601Z" fill="#4facf7"></path></svg>