<svg id="visual" viewBox="0 0 900 600" width="900" height="600" xmlns="http://www.w3.org/2000/svg" xmlns:xlink="http://www.w3.org/1999/xlink" version="1.1"><path d="M0 61L13.7 62C27.3 63 54.7 65 82 67C109.3 69 136.7 71 163.8 81C191 91 218 109 245.2 116C272.3 123 299.7 119 327 106C354.3 93 381.7 71 409 71C436.3 71 463.7 93 491 99C518.3 105 545.7 95 573 88C600.3 81 627.7 77 654.8 76C682 75 709 77 736.2 86C763.3 95 790.7 111 818 112C845.3 113 872.7 99 886.3 92L900 85L900 0L886.3 0C872.7 0 845.3 0 818 0C790.7 0 763.3 0 736.2 0C709 0 682 0 654.8 0C627.7 0 600.3 0 573 0C545.7 0 518.3 0 491 0C463.7 0 436.3 0 409 0C381.7 0 354.3 0 327 0C299.7 0 272.3 0 245.2 0C218 0 191 0 163.8 0C136.7 0 109.3 0 82 0C54.7 0 27.3 0 13.7 0L0 0Z" fill="#295689"></path><path d="M0 205L13.7 221C27.3 237 54.7 269 82 269C109.3 269 136.7 237 163.8 239C191 241 218 277 245.2 303C272.3 329 299.7 345 327 338C354.3 331 381.7 301 409 277C436.3 253 463.7 235 491 243C518.3 251 545.7 285 573 290C600.3 295 627.7 271 654.8 252C682 233 709 219 736.2 224C763.3 229 790.7 253 818 259C845.3 265 872.7 253 886.3 247L900 241L900 83L886.3 90C872.7 97 845.3 111 818 110C790.7 109 763.3 93 736.2 84C709 75 682 73 654.8 74C627.7 75 600.3 79 573 86C545.7 93 518.3 103 491 97C463.7 91 436.3 69 409 69C381.7 69 354.3 91 327 104C299.7 117 272.3 121 245.2 114C218 107 191 89 163.8 79C136.7 69 109.3 67 82 65C54.7 63 27.3 61 13.7 60L0 59Z" fill="#1b4472"></path><path d="M0 253L13.7 271C27.3 289 54.7 325 82 332C109.3 339 136.7 317 163.8 321C191 325 218 355 245.2 372C272.3 389 299.7 393 327 380C354.3 367 381.7 337 409 321C436.3 305 463.7 303 491 314C518.3 325 545.7 349 573 356C600.3 363 627.7 353 654.8 339C682 325 709 307 736.2 304C763.3 301 790.7 313 818 314C845.3 315 872.7 305 886.3 300L900 295L900 239L886.3 245C872.7 251 845.3 263 818 257C790.7 251 763.3 227 736.2 222C709 217 682 231 654.8 250C627.7 269 600.3 293 573 288C545.7 283 518.3 249 491 241C463.7 233 436.3 251 409 275C381.7 299 354.3 329 327 336C299.7 343 272.3 327 245.2 301C218 275 191 239 163.8 237C136.7 235 109.3 267 82 267C54.7 267 27.3 235 13.7 219L0 203Z" fill="#0b335c"></path><path d="M0 331L13.7 361C27.3 391 54.7 451 82 466C109.3 481 136.7 451 163.8 452C191 453 218 485 245.2 490C272.3 495 299.7 473 327 452C354.3 431 381.7 411 409 402C436.3 393 463.7 395 491 418C518.3 441 545.7 485 573 494C600.3 503 627.7 477 654.8 462C682 447 709 443 736.2 441C763.3 439 790.7 439 818 440C845.3 441 872.7 443 886.3 444L900 445L900 293L886.3 298C872.7 303 845.3 313 818 312C790.7 311 763.3 299 736.2 302C709 305 682 323 654.8 337C627.7 351 600.3 361 573 354C545.7 347 518.3 323 491 312C463.7 301 436.3 303 409 319C381.7 335 354.3 365 327 378C299.7 391 272.3 387 245.2 370C218 353 191 323 163.8 319C136.7 315 109.3 337 82 330C54.7 323 27.3 287 13.7 269L0 251Z" fill="#092d50"></path><path d="M0 601L13.7 601C27.3 601 54.7 601 82 601C109.3 601 136.7 601 163.8 601C191 601 218 601 245.2 601C272.3 601 299.7 601 327 601C354.3 601 381.7 601 409 601C436.3 601 463.7 601 491 601C518.3 601 545.7 601 573 601C600.3 601 627.7 601 654.8 601C682 601 709 601 736.2 601C763.3 601 790.7 601 818 601C845.3 601 872.7 601 886.3 601L900 601L900 443L886.3 442C872.7 441 845.3 439 818 438C790.7 437 763.3 437 736.2 439C709 441 682 445 654.8 460C627.7 475 600.3 501 573 492C545.7 483 518.3 439 491 416C463.7 393 436.3 391 409 400C381.7 409 354.3 429 327 450C299.7 471 272.3 493 245.2 488C218 483 191 451 163.8 450C136.7 449 109.3 479 82 464C54.7 449 27.3 389 13.7 359L0 329Z" fill="#092744"></path></svg>