<svg id="visual" viewBox="0 0 900 600" width="900" height="600" xmlns="http://www.w3.org/2000/svg" xmlns:xlink="http://www.w3.org/1999/xlink" version="1.1"><rect x="0" y="0" width="900" height="600" fill="#001122"></rect><path d="M0 475L18.8 479.5C37.7 484 75.3 493 112.8 501.7C150.3 510.3 187.7 518.7 225.2 521.2C262.7 523.7 300.3 520.3 337.8 514.8C375.3 509.3 412.7 501.7 450.2 506.8C487.7 512 525.3 530 562.8 531.5C600.3 533 637.7 518 675.2 513.2C712.7 508.3 750.3 513.7 787.8 512.8C825.3 512 862.7 505 881.3 501.5L900 498L900 601L881.3 601C862.7 601 825.3 601 787.8 601C750.3 601 712.7 601 675.2 601C637.7 601 600.3 601 562.8 601C525.3 601 487.7 601 450.2 601C412.7 601 375.3 601 337.8 601C300.3 601 262.7 601 225.2 601C187.7 601 150.3 601 112.8 601C75.3 601 37.7 601 18.8 601L0 601Z" fill="#0066FF" stroke-linecap="round" stroke-linejoin="miter"></path></svg>