<svg id="visual" viewBox="0 0 900 600" width="900" height="600" xmlns="http://www.w3.org/2000/svg" xmlns:xlink="http://www.w3.org/1999/xlink" version="1.1"><rect x="0" y="0" width="900" height="600" fill="#001122"></rect><path d="M0 524L21.5 505.3C43 486.7 86 449.3 128.8 436.5C171.7 423.7 214.3 435.3 257.2 444.3C300 453.3 343 459.7 385.8 451.2C428.7 442.7 471.3 419.3 514.2 411.3C557 403.3 600 410.7 642.8 418.7C685.7 426.7 728.3 435.3 771.2 429.8C814 424.3 857 404.7 878.5 394.8L900 385L900 601L878.5 601C857 601 814 601 771.2 601C728.3 601 685.7 601 642.8 601C600 601 557 601 514.2 601C471.3 601 428.7 601 385.8 601C343 601 300 601 257.2 601C214.3 601 171.7 601 128.8 601C86 601 43 601 21.5 601L0 601Z" fill="#0066FF" stroke-linecap="round" stroke-linejoin="miter"></path></svg>